<?xml version="1.0" standalone="no"?>
<!DOCTYPE svg PUBLIC "-//W3C//DTD SVG 20010904//EN"
 "http://www.w3.org/TR/2001/REC-SVG-20010904/DTD/svg10.dtd">
<svg version="1.0" xmlns="http://www.w3.org/2000/svg"
 width="260.000000pt" height="260.000000pt" viewBox="0 0 260.000000 260.000000"
 preserveAspectRatio="xMidYMid meet">
<metadata>
Created by potrace 1.14, written by Peter Selinger 2001-2017
</metadata>
<g transform="translate(0.000000,260.000000) scale(0.100000,-0.100000)"
fill="#000000" stroke="none">
<path d="M1280 2579 c-47 -5 -105 -15 -130 -23 -25 -8 -72 -20 -105 -26 -33
-7 -64 -16 -70 -20 -5 -4 -28 -13 -50 -20 -42 -13 -139 -54 -165 -70 -8 -5
-46 -28 -85 -50 -95 -56 -127 -79 -218 -160 -197 -176 -332 -393 -408 -658
-31 -106 -44 -301 -30 -440 15 -149 31 -211 88 -347 77 -181 152 -293 279
-420 119 -118 267 -215 369 -241 14 -3 27 -10 30 -14 3 -5 31 -14 63 -20 31
-7 62 -16 67 -20 6 -4 61 -16 123 -25 137 -21 439 -16 537 8 97 25 169 46 190
57 11 5 40 18 65 27 119 48 283 172 327 247 38 66 -7 146 -83 146 -42 0 -167
-26 -197 -42 -68 -34 -475 -35 -521 0 -6 5 -31 14 -56 21 -106 30 -249 144
-292 233 -50 103 -62 271 -25 359 18 43 66 68 100 51 12 -5 49 -15 82 -22 33
-7 65 -16 70 -20 6 -5 37 -16 70 -25 33 -9 69 -20 80 -25 167 -74 288 -96 475
-87 115 6 168 16 227 43 17 8 34 14 38 14 23 0 138 69 200 120 62 51 145 139
145 154 0 3 14 28 31 57 16 28 42 86 57 128 24 70 26 89 27 236 0 125 -4 175
-19 230 -19 72 -66 178 -92 206 -8 8 -14 19 -14 24 0 11 -89 115 -120 140 -14
11 -33 28 -43 38 -33 33 -181 123 -232 142 -27 10 -54 21 -60 25 -5 4 -35 13
-65 19 -30 7 -71 19 -90 26 -78 31 -376 43 -570 24z"/>
</g>
</svg>
